<?xml version="1.0" encoding="UTF-8" standalone="no"?>
<!DOCTYPE svg PUBLIC "-//W3C//DTD SVG 1.0//EN" "http://www.w3.org/TR/2001/PR-SVG-20010719/DTD/svg10.dtd">
<svg width="23cm" height="14cm" viewBox="11 11 441 269" xmlns="http://www.w3.org/2000/svg">
    <g>
        <rect style="fill: #fdf2c6" x="388" y="208" width="64" height="48"/>
        <rect style="fill: none; fill-opacity:0; stroke-width: 0.6; stroke: #9f5008" x="388" y="208" width="64" height="48"/>
    </g>
    <g>
        <rect style="fill: #c4e1ff" x="92" y="40" width="252" height="240"/>
        <rect style="fill: none; fill-opacity:0; stroke-width: 0.6; stroke-dasharray: 2; stroke: #ffffff" x="92" y="40" width="252" height="240"/>
    </g>
    <g>
        <path style="fill: #fdf2c6" d="M 376 116 C 391.2,113 398.8,112 414,112 C 429.2,112 436.8,113 452,116 L 452,132 C 436.8,135 429.2,136 414,136 C 398.8,136 391.2,135 376,132 L 376,116z"/>
        <path style="fill: none; fill-opacity:0; stroke-width: 0.6; stroke: #9f5008"
              d="M 376 116 C 391.2,113 398.8,112 414,112 C 429.2,112 436.8,113 452,116 L 452,132 C 436.8,135 429.2,136 414,136 C 398.8,136 391.2,135 376,132 L 376,116"/>
        <path style="fill: none; fill-opacity:0; stroke-width: 0.6; stroke: #9f5008" d="M 376 116 C 391.2,119 398.8,120 414,120 C 429.2,120 436.8,119 452,116"/>
        <text font-size="6.20889" style="fill: #9f5008;text-anchor:middle;font-family:sans-serif;font-style:normal;font-weight:700" x="414" y="127.94">
            <tspan x="414" y="127.94">S3 Object Store</tspan>
        </text>
    </g>
    <text font-size="6.77333" style="fill: #000000;text-anchor:start;font-family:sans-serif;font-style:normal;font-weight:700" x="96" y="48">
        <tspan x="96" y="48">Executor container</tspan>
    </text>
    <line style="fill: none; fill-opacity:0; stroke-width: 1; stroke: #000000" x1="128" y1="68" x2="128" y2="260"/>
    <line style="fill: none; fill-opacity:0; stroke-width: 1; stroke: #000000" x1="296.887" y1="166.478" x2="296" y2="208"/>
    <g>
        <line style="fill: none; fill-opacity:0; stroke-width: 0.6; stroke: #000000" x1="12" y1="60" x2="92.3292" y2="60"/>
        <polygon style="fill: #000000" points="95.3292,60 91.3292,62 92.3292,60 91.3292,58 "/>
        <polygon style="fill: none; fill-opacity:0; stroke-width: 0.6; stroke: #000000" points="95.3292,60 91.3292,62 92.3292,60 91.3292,58 "/>
    </g>
    <text font-size="5.08" style="fill: #000000;text-anchor:start;font-family:sans-serif;font-style:normal;font-weight:normal" x="24" y="56">
        <tspan x="24" y="56">Started by swarm</tspan>
    </text>
    <g>
        <rect style="fill: #ffffff" x="100" y="56" width="64" height="10.4778"/>
        <rect style="fill: none; fill-opacity:0; stroke-width: 0.6; stroke: #000000" x="100" y="56" width="64" height="10.4778"/>
        <text font-size="5.08" style="fill: #000000;text-anchor:middle;font-family:sans-serif;font-style:normal;font-weight:normal" x="132" y="62.8139">
            <tspan x="132" y="62.8139">Main executor script</tspan>
        </text>
    </g>
    <g>
        <line style="fill: none; fill-opacity:0; stroke-width: 0.6; stroke: #000000" x1="372" y1="120" x2="143.671" y2="120"/>
        <polygon style="fill: #000000" points="140.671,120 144.671,118 143.671,120 144.671,122 "/>
        <polygon style="fill: none; fill-opacity:0; stroke-width: 0.6; stroke: #000000" points="140.671,120 144.671,118 143.671,120 144.671,122 "/>
    </g>
    <text font-size="5.08" style="fill: #000000;text-anchor:start;font-family:sans-serif;font-style:normal;font-weight:normal" x="144" y="116">
        <tspan x="144" y="116">Fetching input files from object store</tspan>
    </text>
    <g>
        <rect style="fill: #c4e1ff" x="120" y="128" width="68" height="16"/>
        <rect style="fill: none; fill-opacity:0; stroke-width: 0.6; stroke: #000000" x="120" y="128" width="68" height="16"/>
        <text font-size="5.08" style="fill: #000000;text-anchor:middle;font-family:sans-serif;font-style:normal;font-weight:normal" x="154" y="134.4">
            <tspan x="154" y="134.4">building execution</tspan>
            <tspan x="154" y="140.75">command arguments</tspan>
        </text>
    </g>
    <text font-size="12.8" style="fill: #000000;text-anchor:start;font-family:sans-serif;font-style:normal;font-weight:normal" x="218" y="160">
        <tspan x="218" y="160"></tspan>
    </text>
    <text font-size="5.08" style="fill: #000000;text-anchor:start;font-family:sans-serif;font-style:normal;font-weight:normal" x="144" y="216">
        <tspan x="144" y="216">Fetch user quota and available space, register output files</tspan>
    </text>
    <text font-size="12.8" style="fill: #000000;text-anchor:start;font-family:sans-serif;font-style:normal;font-weight:normal" x="157.04" y="24">
        <tspan x="157.04" y="24">Analytical Module Execution</tspan>
    </text>
    <g>
        <line style="fill: none; fill-opacity:0; stroke-width: 0.6; stroke: #000000" x1="128" y1="160" x2="252.329" y2="160"/>
        <polygon style="fill: #000000" points="255.329,160 251.329,162 252.329,160 251.329,158 "/>
        <polygon style="fill: none; fill-opacity:0; stroke-width: 0.6; stroke: #000000" points="255.329,160 251.329,162 252.329,160 251.329,158 "/>
    </g>
    <g>
        <line style="fill: none; fill-opacity:0; stroke-width: 0.6; stroke: #000000" x1="296" y1="204" x2="131.671" y2="204"/>
        <polygon style="fill: #000000" points="128.671,204 132.671,202 131.671,204 132.671,206 "/>
        <polygon style="fill: none; fill-opacity:0; stroke-width: 0.6; stroke: #000000" points="128.671,204 132.671,202 131.671,204 132.671,206 "/>
    </g>
    <g>
        <line style="fill: none; fill-opacity:0; stroke-width: 0.6; stroke: #000000" x1="71.6708" y1="84" x2="128" y2="84"/>
        <polygon style="fill: #000000" points="68.6708,84 72.6708,82 71.6708,84 72.6708,86 "/>
        <polygon style="fill: none; fill-opacity:0; stroke-width: 0.6; stroke: #000000" points="68.6708,84 72.6708,82 71.6708,84 72.6708,86 "/>
    </g>
    <g>
        <line style="fill: none; fill-opacity:0; stroke-width: 0.6; stroke: #000000" x1="68" y1="92" x2="124.329" y2="92"/>
        <polygon style="fill: #000000" points="127.329,92 123.329,94 124.329,92 123.329,90 "/>
        <polygon style="fill: none; fill-opacity:0; stroke-width: 0.6; stroke: #000000" points="127.329,92 123.329,94 124.329,92 123.329,90 "/>
    </g>
    <g>
        <path style="fill: #ffffff"
              d="M 19.4286 76 L 56.5714,76 C 62.1429,80.8 64,83.2 64,88 C 64,92.8 62.1429,95.2 56.5714,100 L 19.4286,100 C 13.8571,95.2 12,92.8 12,88 C 12,83.2 13.8571,80.8 19.4286,76z"/>
        <path style="fill: none; fill-opacity:0; stroke-width: 1; stroke: #000000"
              d="M 19.4286 76 L 56.5714,76 C 62.1429,80.8 64,83.2 64,88 C 64,92.8 62.1429,95.2 56.5714,100 L 19.4286,100 C 13.8571,95.2 12,92.8 12,88 C 12,83.2 13.8571,80.8 19.4286,76"/>
        <path style="fill: none; fill-opacity:0; stroke-width: 1; stroke: #000000" d="M 56.5714 76 C 51,80.8 49.1429,83.2 49.1429,88 C 49.1429,92.8 51,95.2 56.5714,100"/>
        <text font-size="5.07992" style="fill: #000000;text-anchor:middle;font-family:sans-serif;font-style:normal;font-weight:normal" x="34.2857" y="86.4125">
            <tspan x="34.2857" y="86.4125">ActiveMQ</tspan>
            <tspan x="34.2857" y="92.7625">queue</tspan>
        </text>
    </g>
    <text font-size="5.08" style="fill: #000000;text-anchor:start;font-family:sans-serif;font-style:normal;font-weight:normal" x="72" y="100">
        <tspan x="72" y="100">Analytical Module</tspan>
        <tspan x="72" y="106.35">Execution Request</tspan>
    </text>
    <text font-size="5.08" style="fill: #000000;text-anchor:start;font-family:sans-serif;font-style:normal;font-weight:normal" x="80" y="80">
        <tspan x="80" y="80">Polling ActiveMQ</tspan>
    </text>
    <text font-size="6.20879" style="fill: #9f5008;text-anchor:middle;font-family:sans-serif;font-style:normal;font-weight:normal" x="420" y="244">
        <tspan x="420" y="244">User Storage</tspan>
        <tspan x="420" y="251.761">Service</tspan>
    </text>
    <g>
        <path style="fill: #ffffff"
              d="M 383.288 212 L 419.725,212 C 425.191,215.2 427.013,216.8 427.013,220 C 427.013,223.2 425.191,224.8 419.725,228 L 383.288,228 C 377.822,224.8 376,223.2 376,220 C 376,216.8 377.822,215.2 383.288,212z"/>
        <path style="fill: none; fill-opacity:0; stroke-width: 0.6; stroke: #9f5008"
              d="M 383.288 212 L 419.725,212 C 425.191,215.2 427.013,216.8 427.013,220 C 427.013,223.2 425.191,224.8 419.725,228 L 383.288,228 C 377.822,224.8 376,223.2 376,220 C 376,216.8 377.822,215.2 383.288,212"/>
        <path style="fill: none; fill-opacity:0; stroke-width: 0.6; stroke: #9f5008" d="M 419.725 212 C 414.259,215.2 412.438,216.8 412.438,220 C 412.438,223.2 414.259,224.8 419.725,228"/>
        <text font-size="5.07992" style="fill: #9f5008;text-anchor:middle;font-family:sans-serif;font-style:normal;font-weight:normal" x="397.863" y="221.587">
            <tspan x="397.863" y="221.587">ActiveMQ</tspan>
        </text>
    </g>
    <g>
        <path style="fill: #ffffff"
              d="M 19.2875 144 L 55.725,144 C 61.1906,148.8 63.0125,151.2 63.0125,156 C 63.0125,160.8 61.1906,163.2 55.725,168 L 19.2875,168 C 13.8219,163.2 12,160.8 12,156 C 12,151.2 13.8219,148.8 19.2875,144z"/>
        <path style="fill: none; fill-opacity:0; stroke-width: 1; stroke: #000000"
              d="M 19.2875 144 L 55.725,144 C 61.1906,148.8 63.0125,151.2 63.0125,156 C 63.0125,160.8 61.1906,163.2 55.725,168 L 19.2875,168 C 13.8219,163.2 12,160.8 12,156 C 12,151.2 13.8219,148.8 19.2875,144"/>
        <path style="fill: none; fill-opacity:0; stroke-width: 1; stroke: #000000" d="M 55.725 144 C 50.2594,148.8 48.4375,151.2 48.4375,156 C 48.4375,160.8 50.2594,163.2 55.725,168"/>
        <text font-size="5.07992" style="fill: #000000;text-anchor:middle;font-family:sans-serif;font-style:normal;font-weight:normal" x="33.8625" y="154.413">
            <tspan x="33.8625" y="154.413">ActiveMQ</tspan>
            <tspan x="33.8625" y="160.762">topic</tspan>
        </text>
    </g>
    <g>
        <line style="fill: none; fill-opacity:0; stroke-width: 0.6; stroke: #000000" x1="71.6708" y1="156" x2="108" y2="156"/>
        <polygon style="fill: #000000" points="68.6708,156 72.6708,154 71.6708,156 72.6708,158 "/>
        <polygon style="fill: none; fill-opacity:0; stroke-width: 0.6; stroke: #000000" points="68.6708,156 72.6708,154 71.6708,156 72.6708,158 "/>
    </g>
    <line style="fill: none; fill-opacity:0; stroke-width: 0.6; stroke: #000000" x1="108" y1="248" x2="108" y2="112"/>
    <text font-size="5.08" style="fill: #000000;text-anchor:start;font-family:sans-serif;font-style:normal;font-weight:normal" x="72" y="140">
        <tspan x="72" y="140">Execution</tspan>
        <tspan x="72" y="146.35">State</tspan>
        <tspan x="72" y="152.7">Notifications</tspan>
    </text>
    <line style="fill: none; fill-opacity:0; stroke-width: 0.6; stroke: #000000" x1="108" y1="112" x2="128" y2="112"/>
    <g>
        <rect style="fill: #ffffff" x="260" y="156" width="73.775" height="10.4778"/>
        <rect style="fill: none; fill-opacity:0; stroke-width: 0.6; stroke: #000000" x="260" y="156" width="73.775" height="10.4778"/>
        <text font-size="5.08" style="fill: #000000;text-anchor:middle;font-family:sans-serif;font-style:normal;font-weight:normal" x="296.887" y="162.814">
            <tspan x="296.887" y="162.814">Analytical module process</tspan>
        </text>
    </g>
    <text font-size="5.08" style="fill: #000000;text-anchor:start;font-family:sans-serif;font-style:normal;font-weight:normal" x="144" y="156">
        <tspan x="144" y="156">Executing analytical tool</tspan>
    </text>
    <text font-size="5.08" style="fill: #000000;text-anchor:start;font-family:sans-serif;font-style:normal;font-weight:normal" x="144" y="200">
        <tspan x="144" y="200">Read logs from stdout/stderr, fetch exit code</tspan>
    </text>
    <g>
        <rect style="fill: #c4e1ff" x="272" y="171" width="48" height="25"/>
        <rect style="fill: none; fill-opacity:0; stroke-width: 0.6; stroke: #000000" x="272" y="171" width="48" height="25"/>
        <text font-size="5.08" style="fill: #000000;text-anchor:middle;font-family:sans-serif;font-style:normal;font-weight:normal" x="296" y="178.725">
            <tspan x="296" y="178.725">execute analytics,</tspan>
            <tspan x="296" y="185.075">writes output</tspan>
            <tspan x="296" y="191.425">files locally</tspan>
        </text>
    </g>
    <g>
        <line style="fill: none; fill-opacity:0; stroke-width: 0.6; stroke: #000000" x1="131.671" y1="220" x2="368.329" y2="220"/>
        <polygon style="fill: #000000" points="128.671,220 132.671,218 131.671,220 132.671,222 "/>
        <polygon style="fill: none; fill-opacity:0; stroke-width: 0.6; stroke: #000000" points="128.671,220 132.671,218 131.671,220 132.671,222 "/>
        <polygon style="fill: #000000" points="371.329,220 367.329,222 368.329,220 367.329,218 "/>
        <polygon style="fill: none; fill-opacity:0; stroke-width: 0.6; stroke: #000000" points="371.329,220 367.329,222 368.329,220 367.329,218 "/>
    </g>
    <g>
        <line style="fill: none; fill-opacity:0; stroke-width: 0.6; stroke: #000000" x1="352" y1="124" x2="368.329" y2="124"/>
        <polygon style="fill: #000000" points="371.329,124 367.329,126 368.329,124 367.329,122 "/>
        <polygon style="fill: none; fill-opacity:0; stroke-width: 0.6; stroke: #000000" points="371.329,124 367.329,126 368.329,124 367.329,122 "/>
    </g>
    <line style="fill: none; fill-opacity:0; stroke-width: 0.6; stroke: #000000" x1="128" y1="236" x2="352" y2="236"/>
    <line style="fill: none; fill-opacity:0; stroke-width: 0.6; stroke: #000000" x1="352" y1="124" x2="352" y2="236"/>
    <line style="fill: none; fill-opacity:0; stroke-width: 0.6; stroke: #000000" x1="108" y1="156" x2="128" y2="156"/>
    <line style="fill: none; fill-opacity:0; stroke-width: 0.6; stroke: #000000" x1="108" y1="208" x2="128" y2="208"/>
    <line style="fill: none; fill-opacity:0; stroke-width: 0.6; stroke: #000000" x1="108" y1="228" x2="128" y2="228"/>
    <line style="fill: none; fill-opacity:0; stroke-width: 0.6; stroke: #000000" x1="108" y1="248" x2="128" y2="248"/>
</svg>
