<?xml version="1.0" encoding="UTF-8" standalone="no"?>
<!DOCTYPE svg PUBLIC "-//W3C//DTD SVG 1.0//EN" "http://www.w3.org/TR/2001/PR-SVG-20010719/DTD/svg10.dtd">
<svg width="24cm" height="15cm" viewBox="16 4 467 296" xmlns="http://www.w3.org/2000/svg">
    <rect style="fill: none; fill-opacity:0; stroke-width: 0.6; stroke-dasharray: 2; stroke: #000000" x="92" y="208" width="376" height="32"/>
    <text font-size="6.20889" style="fill: #000000;text-anchor:start;font-family:sans-serif;font-style:normal;font-weight:700" x="82.3776" y="50.7937">
        <tspan x="82.3776" y="50.7937">WorkflowScheduler</tspan>
    </text>
    <text font-size="6.20889" style="fill: #000000;text-anchor:start;font-family:sans-serif;font-style:normal;font-weight:700" x="368" y="52">
        <tspan x="368" y="52">JobExecutor</tspan>
    </text>
    <text font-size="6.20889" style="fill: #0000ff;text-anchor:start;font-family:sans-serif;font-style:normal;font-weight:700" x="424" y="52">
        <tspan x="424" y="52">Executor Service</tspan>
    </text>
    <g>
        <path style="fill: #ffffff"
              d="M 199.15 43.587 C 217.93,40.8968 227.32,40 246.1,40 C 264.88,40 274.27,40.8968 293.05,43.587 L 293.05,57.9352 C 274.27,60.6255 264.88,61.5222 246.1,61.5222 C 227.32,61.5222 217.93,60.6255 199.15,57.9352 L 199.15,43.587z"/>
        <path style="fill: none; fill-opacity:0; stroke-width: 1; stroke: #000000"
              d="M 199.15 43.587 C 217.93,40.8968 227.32,40 246.1,40 C 264.88,40 274.27,40.8968 293.05,43.587 L 293.05,57.9352 C 274.27,60.6255 264.88,61.5222 246.1,61.5222 C 227.32,61.5222 217.93,60.6255 199.15,57.9352 L 199.15,43.587"/>
        <path style="fill: none; fill-opacity:0; stroke-width: 1; stroke: #000000" d="M 199.15 43.587 C 217.93,46.2773 227.32,47.1741 246.1,47.1741 C 264.88,47.1741 274.27,46.2773 293.05,43.587"/>
        <text font-size="6.20889" style="fill: #000000;text-anchor:middle;font-family:sans-serif;font-style:normal;font-weight:700" x="246.1" y="54.4949">
            <tspan x="246.1" y="54.4949">Registries, Catches, DAOs</tspan>
        </text>
    </g>
    <text font-size="6.20889" style="fill: #0000ff;text-anchor:start;font-family:sans-serif;font-style:normal;font-weight:700" x="16" y="52">
        <tspan x="16" y="52">PublicApi</tspan>
    </text>
    <line style="fill: none; fill-opacity:0; stroke-width: 1; stroke: #0000ff" x1="28" y1="56" x2="28" y2="300"/>
    <line style="fill: none; fill-opacity:0; stroke-width: 1; stroke: #000000" x1="112" y1="56" x2="112" y2="300"/>
    <line style="fill: none; fill-opacity:0; stroke-width: 1; stroke: #000000" x1="248" y1="64" x2="248" y2="300"/>
    <line style="fill: none; fill-opacity:0; stroke-width: 1; stroke: #000000" x1="384" y1="56" x2="384" y2="300"/>
    <line style="fill: none; fill-opacity:0; stroke-width: 1; stroke: #0000ff" x1="452" y1="56" x2="452" y2="300"/>
    <g>
        <line style="fill: none; fill-opacity:0; stroke-width: 0.6; stroke: #000000" x1="112" y1="164" x2="244.329" y2="164"/>
        <polygon style="fill: #000000" points="247.329,164 243.329,166 244.329,164 243.329,162 "/>
        <polygon style="fill: none; fill-opacity:0; stroke-width: 0.6; stroke: #000000" points="247.329,164 243.329,166 244.329,164 243.329,162 "/>
    </g>
    <text font-size="5.07992" style="fill: #000000;text-anchor:start;font-family:sans-serif;font-style:normal;font-weight:normal" x="116" y="160">
        <tspan x="116" y="160">WorkflowRegistry :: putState (FINISHED_SUCCESS)</tspan>
    </text>
    <text font-size="12.7998" style="fill: #000000;text-anchor:start;font-family:sans-serif;font-style:normal;font-weight:normal" x="280" y="224">
        <tspan x="280" y="224"></tspan>
    </text>
    <text font-size="5.07992" style="fill: #000000;text-anchor:start;font-family:sans-serif;font-style:normal;font-weight:normal" x="116" y="216">
        <tspan x="116" y="216">execute all ready jobs</tspan>
        <tspan x="116" y="222.35">- see the "start workflow execution" flow chart</tspan>
    </text>
    <g>
        <line style="fill: none; fill-opacity:0; stroke-width: 0.6; stroke: #000000" x1="452" y1="80" x2="115.671" y2="80"/>
        <polygon style="fill: #000000" points="112.671,80 116.671,78 115.671,80 116.671,82 "/>
        <polygon style="fill: none; fill-opacity:0; stroke-width: 0.6; stroke: #000000" points="112.671,80 116.671,78 115.671,80 116.671,82 "/>
    </g>
    <text font-size="5.07992" style="fill: #000000;text-anchor:start;font-family:sans-serif;font-style:normal;font-weight:normal" x="396" y="72">
        <tspan x="396" y="72">Send execution</tspan>
        <tspan x="396" y="78.35">state notification</tspan>
    </text>
    <text font-size="12.7998" style="fill: #000000;text-anchor:middle;font-family:sans-serif;font-style:normal;font-weight:normal" x="239.539" y="16.9601">
        <tspan x="239.539" y="16.9601">Continue Workflow Execution</tspan>
        <tspan x="239.539" y="32.9601">(when a module finished successfully)</tspan>
    </text>
    <g>
        <line style="fill: none; fill-opacity:0; stroke-width: 0.6; stroke: #000000" x1="112" y1="100" x2="380.329" y2="100"/>
        <polygon style="fill: #000000" points="383.329,100 379.329,102 380.329,100 379.329,98 "/>
        <polygon style="fill: none; fill-opacity:0; stroke-width: 0.6; stroke: #000000" points="383.329,100 379.329,102 380.329,100 379.329,98 "/>
    </g>
    <text font-size="5.07992" style="fill: #000000;text-anchor:start;font-family:sans-serif;font-style:normal;font-weight:normal" x="252" y="116">
        <tspan x="252" y="116">ExecutionRegistry :: fetchModuleConfiguration</tspan>
        <tspan x="252" y="122.35">VariableRegistry :: registerNewlyCreatedVariables</tspan>
    </text>
    <g>
        <line style="fill: none; fill-opacity:0; stroke-width: 0.6; stroke: #000000" x1="384" y1="124" x2="251.671" y2="124"/>
        <polygon style="fill: #000000" points="248.671,124 252.671,122 251.671,124 252.671,126 "/>
        <polygon style="fill: none; fill-opacity:0; stroke-width: 0.6; stroke: #000000" points="248.671,124 252.671,122 251.671,124 252.671,126 "/>
    </g>
    <text font-size="5.07992" style="fill: #000000;text-anchor:start;font-family:sans-serif;font-style:normal;font-weight:normal" x="152" y="96">
        <tspan x="152" y="96">OnJobNotification ( execution Id)</tspan>
    </text>
    <g>
        <line style="fill: none; fill-opacity:0; stroke-width: 0.6; stroke: #000000" x1="384" y1="140" x2="115.671" y2="140"/>
        <polygon style="fill: #000000" points="112.671,140 116.671,138 115.671,140 116.671,142 "/>
        <polygon style="fill: none; fill-opacity:0; stroke-width: 0.6; stroke: #000000" points="112.671,140 116.671,138 115.671,140 116.671,142 "/>
    </g>
    <text font-size="5.07992" style="fill: #000000;text-anchor:start;font-family:sans-serif;font-style:normal;font-weight:normal" x="288" y="136">
        <tspan x="288" y="136">returns: Module configuration</tspan>
    </text>
    <g>
        <line style="fill: none; fill-opacity:0; stroke-width: 0.6; stroke: #000000" x1="112" y1="188" x2="31.6708" y2="188"/>
        <polygon style="fill: #000000" points="28.6708,188 32.6708,186 31.6708,188 32.6708,190 "/>
        <polygon style="fill: none; fill-opacity:0; stroke-width: 0.6; stroke: #000000" points="28.6708,188 32.6708,186 31.6708,188 32.6708,190 "/>
    </g>
    <text font-size="5.07992" style="fill: #000000;text-anchor:start;font-family:sans-serif;font-style:normal;font-weight:normal" x="44" y="180">
        <tspan x="44" y="180">Workflow Execution</tspan>
        <tspan x="44" y="186.35">Notification</tspan>
    </text>
</svg>
